<?xml version="1.0" standalone="no"?>
<!DOCTYPE svg PUBLIC "-//W3C//DTD SVG 20010904//EN"
 "http://www.w3.org/TR/2001/REC-SVG-20010904/DTD/svg10.dtd">
<svg version="1.0" xmlns="http://www.w3.org/2000/svg"
 width="260.000000pt" height="260.000000pt" viewBox="0 0 260.000000 260.000000"
 preserveAspectRatio="xMidYMid meet">
<metadata>
Created by potrace 1.11, written by Peter Selinger 2001-2013
</metadata>
<g transform="translate(0.000000,260.000000) scale(0.100000,-0.100000)"
fill="#000000" stroke="none">
<path d="M1039 2276 c-2 -2 -38 -6 -79 -10 -228 -18 -435 -115 -606 -283 -141
-138 -251 -349 -281 -542 -9 -54 -9 -260 0 -312 34 -209 130 -394 281 -545
138 -136 262 -207 453 -259 59 -16 84 -21 165 -30 l57 -6 1 223 1 223 -70 12
c-107 16 -210 70 -290 150 -112 113 -162 231 -163 384 -1 153 52 280 163 389
110 109 242 160 401 155 106 -3 194 -31 282 -90 l68 -46 27 23 c14 13 29 27
32 31 3 4 62 64 130 133 l124 126 -35 30 c-162 138 -385 229 -582 237 -34 1
-65 4 -69 7 -3 2 -8 2 -10 0z"/>
<path d="M2344 2240 c-262 -66 -479 -231 -616 -465 -81 -140 -125 -302 -133
-492 -8 -202 -84 -346 -239 -452 -59 -41 -193 -91 -242 -91 l-24 0 0 -224 0
-223 57 4 c149 12 363 93 482 182 143 108 255 241 334 396 67 134 88 230 82
385 -7 172 39 295 153 407 73 72 174 127 272 147 l65 13 3 222 2 222 -48 -3
c-27 -2 -93 -14 -148 -28z"/>
</g>
</svg>
