<?xml version="1.0" standalone="no"?>
<!DOCTYPE svg PUBLIC "-//W3C//DTD SVG 20010904//EN"
 "http://www.w3.org/TR/2001/REC-SVG-20010904/DTD/svg10.dtd">
<svg version="1.0" xmlns="http://www.w3.org/2000/svg"
 width="260.000000pt" height="260.000000pt" viewBox="0 0 260.000000 260.000000"
 preserveAspectRatio="xMidYMid meet">
<metadata>
Created by potrace 1.11, written by Peter Selinger 2001-2013
</metadata>
<g transform="translate(0.000000,260.000000) scale(0.100000,-0.100000)"
fill="#000000" stroke="none">
<path d="M850 2251 c-297 -65 -547 -257 -680 -521 -241 -480 -62 -1057 410
-1318 83 -46 223 -91 330 -108 52 -7 101 -14 108 -14 9 0 12 51 12 223 l0 223
-70 11 c-202 31 -383 196 -436 398 -21 77 -18 221 6 296 39 125 111 221 218
292 102 68 176 90 302 91 127 1 206 -22 308 -91 l66 -44 153 153 c84 84 152
157 150 163 -7 21 -147 119 -232 161 -143 71 -243 95 -415 100 -115 3 -162 0
-230 -15z"/>
<path d="M2400 2255 c-308 -62 -564 -259 -700 -539 -67 -138 -89 -223 -100
-396 -5 -80 -16 -167 -25 -193 -58 -191 -226 -343 -417 -378 l-68 -12 0 -223
0 -223 52 5 c87 10 214 42 296 76 210 87 414 283 524 503 68 134 80 191 83
375 2 180 12 224 73 321 83 130 227 226 372 248 l45 6 3 223 2 222 -37 -1
c-21 0 -67 -7 -103 -14z"/>
</g>
</svg>
