<?xml version="1.0" standalone="no"?>
<!DOCTYPE svg PUBLIC "-//W3C//DTD SVG 20010904//EN"
 "http://www.w3.org/TR/2001/REC-SVG-20010904/DTD/svg10.dtd">
<svg version="1.0" xmlns="http://www.w3.org/2000/svg"
 width="260.000000pt" height="260.000000pt" viewBox="0 0 260.000000 260.000000"
 preserveAspectRatio="xMidYMid meet">
<metadata>
Created by potrace 1.11, written by Peter Selinger 2001-2013
</metadata>
<g transform="translate(0.000000,260.000000) scale(0.100000,-0.100000)"
fill="#000000" stroke="none">
<path d="M955 2300 c-27 -4 -69 -10 -93 -13 -112 -16 -281 -87 -388 -163 -211
-149 -357 -369 -409 -620 -9 -43 -17 -96 -17 -117 1 -20 -3 -35 -7 -33 -10 6
-7 -46 3 -63 6 -10 5 -12 -2 -7 -16 9 -15 -7 0 -22 9 -9 9 -12 -1 -12 -9 0
-10 -4 -4 -12 6 -7 11 -26 11 -43 1 -53 31 -173 63 -257 131 -340 449 -590
804 -633 28 -3 62 -8 78 -11 18 -4 27 -1 28 8 4 40 4 406 1 425 -4 18 -11 23
-37 23 -48 0 -163 40 -229 80 -113 68 -214 203 -242 325 -26 112 -25 209 5
305 57 183 208 328 390 375 58 15 221 22 240 11 4 -3 18 -7 32 -10 68 -13 165
-62 217 -109 l23 -21 160 161 161 160 -68 55 c-148 118 -316 191 -490 212 -86
11 -177 13 -229 6z"/>
<path d="M2549 2306 c-2 -2 -32 -6 -65 -10 -144 -15 -315 -79 -445 -166 -35
-24 -100 -80 -145 -124 -180 -180 -274 -388 -290 -641 -11 -181 -17 -214 -57
-305 -65 -148 -243 -283 -403 -305 -26 -3 -50 -8 -53 -10 -4 -2 -6 -104 -6
-227 1 -204 2 -223 18 -222 198 16 369 76 519 180 143 99 275 256 353 419 65
134 78 195 80 370 2 164 10 209 58 298 74 141 222 246 392 281 59 13 72 26 53
53 -5 6 -5 14 0 17 10 6 10 46 -1 63 -4 6 -3 14 1 17 10 6 10 46 -1 63 -4 6
-3 14 1 17 10 6 10 46 -1 63 -4 6 -3 14 1 17 10 6 10 46 -1 63 -4 6 -3 14 2
17 5 3 7 19 6 36 -3 31 -8 43 -16 36z"/>
</g>
</svg>
