<svg id="Layer_1" data-name="Layer 1" xmlns="http://www.w3.org/2000/svg" viewBox="0 0 309.64 59.86"><defs><style>.cls-1{fill:#faa61a;}.cls-1,.cls-2,.cls-3,.cls-4,.cls-5,.cls-6{fill-rule:evenodd;}.cls-2{fill:#f58220;}.cls-3{fill:#008fd5;}.cls-4{fill:#00588a;}.cls-5{fill:#66952e;}.cls-6{fill:#dbdb45;}.cls-7,.cls-8{fill:#f2f6f8;}.cls-8{stroke:#f2f6f8;stroke-miterlimit:10;stroke-width:0.74px;}</style></defs><title>AGA Logo_Horizontal_Rev</title><path class="cls-1" d="M62.59,171.12l-13.71-7.91c-4-2.33-7.43-2.28-10.28-.75,3.52,4.39,6.32,9.32,6.18,13.76a85.7,85.7,0,0,0,17.81-5.1Z" transform="translate(-25.28 -149.58)"/><path class="cls-2" d="M38.6,162.46c2.85-1.53,6.24-1.58,10.28.75l-4.94-2.86L25.28,149.58A85.39,85.39,0,0,1,38.6,162.46Z" transform="translate(-25.28 -149.58)"/><path class="cls-3" d="M29.77,174.68c2.05-5.24,4.92-10.12,8.83-12.22a85.39,85.39,0,0,0-13.32-12.88v15.83c0,4.66,1.75,7.57,4.49,9.27Z" transform="translate(-25.28 -149.58)"/><path class="cls-4" d="M29.77,174.68c-2.74-1.7-4.49-4.61-4.49-9.27v27.25a85.91,85.91,0,0,1,4.49-18Z" transform="translate(-25.28 -149.58)"/><path class="cls-5" d="M29.77,174.68a85.91,85.91,0,0,0-4.49,18L39,184.75c4-2.34,5.68-5.31,5.79-8.53-5.57.85-11.23.81-15-1.54Z" transform="translate(-25.28 -149.58)"/><path class="cls-6" d="M44.78,176.22c-.11,3.22-1.75,6.19-5.79,8.53l4.95-2.86,18.65-10.77a85.7,85.7,0,0,1-17.81,5.1Z" transform="translate(-25.28 -149.58)"/><path class="cls-7" d="M197.74,149.72h.74l4.84,10.46h-.85l-1.32-2.91H195l-1.32,2.91h-.8Zm3.08,6.85-2.73-6-2.74,6Z" transform="translate(-25.28 -149.58)"/><path class="cls-7" d="M205.41,152.61h.73V154a2.8,2.8,0,0,1,2.52-1.53,2.71,2.71,0,0,1,2.55,1.64,3,3,0,0,1,2.73-1.64,2.85,2.85,0,0,1,2.91,3.16v4.59h-.73v-4.5c0-1.63-.84-2.58-2.24-2.58a2.44,2.44,0,0,0-2.39,2.67v4.41h-.72v-4.54c0-1.57-.86-2.54-2.22-2.54a2.55,2.55,0,0,0-2.41,2.72v4.36h-.73Z" transform="translate(-25.28 -149.58)"/><path class="cls-7" d="M219.06,156.41v0a3.73,3.73,0,0,1,3.59-3.95c2.12,0,3.47,1.73,3.47,4a2.71,2.71,0,0,1,0,.29h-6.28a3,3,0,0,0,3,3,3.42,3.42,0,0,0,2.6-1.19l.5.44a4,4,0,0,1-3.13,1.43A3.76,3.76,0,0,1,219.06,156.41Zm6.28-.37c-.11-1.53-1-2.94-2.72-2.94a3,3,0,0,0-2.79,2.94Z" transform="translate(-25.28 -149.58)"/><path class="cls-7" d="M228.3,152.61H229v2.15a3.59,3.59,0,0,1,3.36-2.27v.8h-.08c-1.75,0-3.28,1.33-3.28,3.79v3.1h-.73Z" transform="translate(-25.28 -149.58)"/><path class="cls-7" d="M234.31,149.64h.91v1h-.91Zm.09,3h.73v7.57h-.73Z" transform="translate(-25.28 -149.58)"/><path class="cls-7" d="M237.53,156.43v0a3.9,3.9,0,0,1,6.89-2.57l-.52.53a3.42,3.42,0,0,0-2.52-1.24,3.13,3.13,0,0,0-3.06,3.25v0a3.19,3.19,0,0,0,3.12,3.28,3.33,3.33,0,0,0,2.53-1.27l.51.45a3.88,3.88,0,0,1-6.95-2.43Z" transform="translate(-25.28 -149.58)"/><path class="cls-7" d="M246,158v0c0-1.57,1.35-2.46,3.31-2.46a8.83,8.83,0,0,1,2.51.33v-.33c0-1.53-.93-2.31-2.49-2.31a5.17,5.17,0,0,0-2.38.6l-.26-.63a6,6,0,0,1,2.68-.66,3.3,3.3,0,0,1,2.39.83,2.87,2.87,0,0,1,.77,2.14v4.72h-.71v-1.26a3.43,3.43,0,0,1-2.89,1.44C247.48,160.36,246,159.56,246,158Zm5.83-.63v-.87a10.09,10.09,0,0,0-2.56-.34c-1.61,0-2.5.72-2.5,1.77v0c0,1.1,1,1.74,2.2,1.74A2.6,2.6,0,0,0,251.79,157.35Z" transform="translate(-25.28 -149.58)"/><path class="cls-7" d="M255.16,152.61h.73V154a3,3,0,0,1,2.73-1.59,2.89,2.89,0,0,1,3,3.12v4.63h-.73v-4.5a2.31,2.31,0,0,0-2.4-2.58,2.59,2.59,0,0,0-2.63,2.7v4.38h-.73Z" transform="translate(-25.28 -149.58)"/><path class="cls-7" d="M193.33,171.25v0a5.18,5.18,0,0,1,5.13-5.37,5.44,5.44,0,0,1,3.8,1.36l-.5.58a4.7,4.7,0,0,0-3.34-1.25,4.42,4.42,0,0,0-4.29,4.65v0c0,2.69,1.68,4.69,4.45,4.69a5.31,5.31,0,0,0,3.31-1.19v-3h-3.47V171h4.21v4a6.22,6.22,0,0,1-4.08,1.56A5.06,5.06,0,0,1,193.33,171.25Z" transform="translate(-25.28 -149.58)"/><path class="cls-7" d="M204.84,174.22v0c0-1.58,1.36-2.47,3.31-2.47a9.2,9.2,0,0,1,2.51.33v-.33a2.17,2.17,0,0,0-2.49-2.31,5.06,5.06,0,0,0-2.38.61l-.26-.64a6,6,0,0,1,2.68-.65,3.26,3.26,0,0,1,2.39.83,2.84,2.84,0,0,1,.77,2.13v4.72h-.71v-1.26a3.43,3.43,0,0,1-2.89,1.44C206.36,176.59,204.84,175.79,204.84,174.22Zm5.84-.64v-.86a9.8,9.8,0,0,0-2.57-.34c-1.6,0-2.49.71-2.49,1.76v0c0,1.1,1,1.74,2.19,1.74C209.36,175.91,210.68,175,210.68,173.58Z" transform="translate(-25.28 -149.58)"/><path class="cls-7" d="M213.39,175.46l.43-.58a4.43,4.43,0,0,0,2.72,1c1,0,1.82-.57,1.82-1.44v0c0-.89-1-1.22-2-1.51-1.23-.36-2.6-.73-2.6-2.08v0a2.23,2.23,0,0,1,2.5-2.09,5,5,0,0,1,2.68.83l-.38.61a4.36,4.36,0,0,0-2.33-.76c-1,0-1.73.56-1.73,1.32v0c0,.85,1,1.16,2.11,1.47s2.5.79,2.5,2.12v0a2.35,2.35,0,0,1-2.62,2.21A5.15,5.15,0,0,1,213.39,175.46Z" transform="translate(-25.28 -149.58)"/><path class="cls-7" d="M221.73,174.47v-5h-1.1v-.67h1.1v-2.41h.73v2.41h2.65v.67h-2.65v4.88a1.33,1.33,0,0,0,1.51,1.47,2.62,2.62,0,0,0,1.12-.26v.68a2.79,2.79,0,0,1-1.24.27A1.94,1.94,0,0,1,221.73,174.47Z" transform="translate(-25.28 -149.58)"/><path class="cls-7" d="M227.33,168.84h.72V171a3.59,3.59,0,0,1,3.36-2.27v.8h-.08c-1.75,0-3.28,1.32-3.28,3.78v3.1h-.72Z" transform="translate(-25.28 -149.58)"/><path class="cls-7" d="M232.43,172.66v0a3.89,3.89,0,1,1,7.78,0v0a3.91,3.91,0,0,1-3.91,4A3.87,3.87,0,0,1,232.43,172.66Zm7,0v0a3.17,3.17,0,0,0-3.12-3.28,3.12,3.12,0,0,0-3.08,3.25v0a3.17,3.17,0,0,0,3.11,3.28A3.12,3.12,0,0,0,239.42,172.66Z" transform="translate(-25.28 -149.58)"/><path class="cls-7" d="M242,172.64v0a3.73,3.73,0,0,1,3.59-3.94c2.12,0,3.47,1.72,3.47,4a1.46,1.46,0,0,1,0,.3h-6.27a3,3,0,0,0,3,3,3.38,3.38,0,0,0,2.59-1.19l.51.45a4,4,0,0,1-3.13,1.42A3.76,3.76,0,0,1,242,172.64Zm6.27-.37c-.1-1.53-1-2.94-2.71-2.94a3,3,0,0,0-2.79,2.94Z" transform="translate(-25.28 -149.58)"/><path class="cls-7" d="M251.23,168.84H252v1.41a3,3,0,0,1,2.73-1.58,2.88,2.88,0,0,1,3,3.11v4.63H257v-4.49a2.32,2.32,0,0,0-2.41-2.59A2.6,2.6,0,0,0,252,172v4.37h-.73Z" transform="translate(-25.28 -149.58)"/><path class="cls-7" d="M260.79,174.47v-5h-1.1v-.67h1.1v-2.41h.72v2.41h2.66v.67h-2.66v4.88a1.33,1.33,0,0,0,1.52,1.47,2.55,2.55,0,0,0,1.11-.26v.68a2.77,2.77,0,0,1-1.23.27A1.94,1.94,0,0,1,260.79,174.47Z" transform="translate(-25.28 -149.58)"/><path class="cls-7" d="M265.64,172.64v0a3.73,3.73,0,0,1,3.59-3.94c2.12,0,3.47,1.72,3.47,4a2.91,2.91,0,0,1,0,.3h-6.28a3,3,0,0,0,3,3,3.42,3.42,0,0,0,2.6-1.19l.5.45a4,4,0,0,1-3.13,1.42A3.76,3.76,0,0,1,265.64,172.64Zm6.28-.37c-.11-1.53-1-2.94-2.72-2.94a3,3,0,0,0-2.79,2.94Z" transform="translate(-25.28 -149.58)"/><path class="cls-7" d="M274.88,168.84h.73V171a3.58,3.58,0,0,1,3.35-2.27v.8h-.07c-1.75,0-3.28,1.32-3.28,3.78v3.1h-.73Z" transform="translate(-25.28 -149.58)"/><path class="cls-7" d="M280,172.66v0a3.91,3.91,0,0,1,3.9-4,3.87,3.87,0,0,1,3.87,3.93v0a3.89,3.89,0,1,1-7.77,0Zm7,0v0a3.17,3.17,0,0,0-3.12-3.28,3.13,3.13,0,0,0-3.09,3.25v0a3.18,3.18,0,0,0,3.12,3.28A3.12,3.12,0,0,0,287,172.66Z" transform="translate(-25.28 -149.58)"/><path class="cls-7" d="M290.17,165.58h.72v10.83h-.72Z" transform="translate(-25.28 -149.58)"/><path class="cls-7" d="M293.3,172.66v0a3.91,3.91,0,0,1,3.9-4,3.87,3.87,0,0,1,3.87,3.93v0a3.89,3.89,0,1,1-7.77,0Zm7,0v0a3.17,3.17,0,0,0-3.12-3.28,3.13,3.13,0,0,0-3.09,3.25v0a3.18,3.18,0,0,0,3.12,3.28A3.12,3.12,0,0,0,300.29,172.66Z" transform="translate(-25.28 -149.58)"/><path class="cls-7" d="M303.23,177.66l.43-.59a5,5,0,0,0,3,1.06,2.72,2.72,0,0,0,3-2.93v-1.1a3.77,3.77,0,0,1-3.16,1.75,3.59,3.59,0,0,1-3.64-3.56v0a3.6,3.6,0,0,1,3.64-3.59,3.76,3.76,0,0,1,3.16,1.69v-1.52h.73v6.4a3.51,3.51,0,0,1-1,2.57,3.83,3.83,0,0,1-2.74,1A5.71,5.71,0,0,1,303.23,177.66Zm6.5-5.39v0a3,3,0,0,0-3.14-2.88,2.8,2.8,0,0,0-2.92,2.87v0a2.88,2.88,0,0,0,2.92,2.89A3,3,0,0,0,309.73,172.27Z" transform="translate(-25.28 -149.58)"/><path class="cls-7" d="M313.24,165.88h.91v1h-.91Zm.09,3h.73v7.57h-.73Z" transform="translate(-25.28 -149.58)"/><path class="cls-7" d="M316.46,172.66v0a3.93,3.93,0,0,1,3.86-4,4,4,0,0,1,3,1.39l-.52.54a3.43,3.43,0,0,0-2.53-1.25,3.12,3.12,0,0,0-3.05,3.25v0a3.19,3.19,0,0,0,3.11,3.28,3.39,3.39,0,0,0,2.54-1.26l.51.44a3.88,3.88,0,0,1-7-2.43Z" transform="translate(-25.28 -149.58)"/><path class="cls-7" d="M324.89,174.22v0c0-1.58,1.35-2.47,3.31-2.47a9.26,9.26,0,0,1,2.51.33v-.33a2.18,2.18,0,0,0-2.5-2.31,5,5,0,0,0-2.37.61l-.27-.64a6,6,0,0,1,2.69-.65,3.28,3.28,0,0,1,2.39.83,2.87,2.87,0,0,1,.77,2.13v4.72h-.71v-1.26a3.45,3.45,0,0,1-2.9,1.44C326.4,176.59,324.89,175.79,324.89,174.22Zm5.83-.64v-.86a9.74,9.74,0,0,0-2.57-.34c-1.6,0-2.49.71-2.49,1.76v0c0,1.1,1,1.74,2.2,1.74A2.6,2.6,0,0,0,330.72,173.58Z" transform="translate(-25.28 -149.58)"/><path class="cls-7" d="M334.19,165.58h.73v10.83h-.73Z" transform="translate(-25.28 -149.58)"/><path class="cls-7" d="M197.74,182.18h.74l4.84,10.47h-.85l-1.32-2.91H195l-1.32,2.91h-.8Zm3.08,6.86-2.73-6-2.74,6Z" transform="translate(-25.28 -149.58)"/><path class="cls-7" d="M204.76,191.7l.43-.58a4.42,4.42,0,0,0,2.71,1c1,0,1.83-.56,1.83-1.44v0c0-.89-.95-1.21-2-1.51-1.23-.36-2.59-.73-2.59-2.08v0a2.22,2.22,0,0,1,2.49-2.09,5.16,5.16,0,0,1,2.69.83l-.39.61a4.36,4.36,0,0,0-2.33-.76c-1,0-1.72.57-1.72,1.32v0c0,.85,1,1.16,2.11,1.47s2.49.79,2.49,2.12v0a2.35,2.35,0,0,1-2.61,2.21A5.18,5.18,0,0,1,204.76,191.7Z" transform="translate(-25.28 -149.58)"/><path class="cls-7" d="M212,191.7l.43-.58a4.42,4.42,0,0,0,2.72,1c1,0,1.82-.56,1.82-1.44v0c0-.89-.95-1.21-2-1.51-1.23-.36-2.6-.73-2.6-2.08v0a2.23,2.23,0,0,1,2.5-2.09,5.15,5.15,0,0,1,2.68.83l-.38.61a4.36,4.36,0,0,0-2.33-.76c-1,0-1.73.57-1.73,1.32v0c0,.85,1,1.16,2.11,1.47s2.49.79,2.49,2.12v0a2.34,2.34,0,0,1-2.61,2.21A5.21,5.21,0,0,1,212,191.7Z" transform="translate(-25.28 -149.58)"/><path class="cls-7" d="M219.61,188.89v0a3.89,3.89,0,1,1,7.78,0v0a3.91,3.91,0,0,1-3.91,4A3.87,3.87,0,0,1,219.61,188.89Zm7,0v0a3.18,3.18,0,0,0-3.12-3.28,3.12,3.12,0,0,0-3.08,3.25v0a3.17,3.17,0,0,0,3.11,3.28A3.12,3.12,0,0,0,226.6,188.89Z" transform="translate(-25.28 -149.58)"/><path class="cls-7" d="M229.17,188.89v0a3.93,3.93,0,0,1,3.85-4,4,4,0,0,1,3,1.39l-.52.54a3.39,3.39,0,0,0-2.52-1.25,3.13,3.13,0,0,0-3.06,3.25v0a3.18,3.18,0,0,0,3.12,3.28,3.39,3.39,0,0,0,2.54-1.26l.5.45a3.88,3.88,0,0,1-6.94-2.44Z" transform="translate(-25.28 -149.58)"/><path class="cls-7" d="M238.23,182.11h.91v1h-.91Zm.09,3h.73v7.57h-.73Z" transform="translate(-25.28 -149.58)"/><path class="cls-7" d="M241.35,190.45v0c0-1.57,1.35-2.46,3.31-2.46a9.29,9.29,0,0,1,2.51.32V188a2.19,2.19,0,0,0-2.5-2.32,5,5,0,0,0-2.37.61l-.27-.64a6.17,6.17,0,0,1,2.69-.65,3.28,3.28,0,0,1,2.39.83,2.88,2.88,0,0,1,.77,2.14v4.72h-.71v-1.27a3.45,3.45,0,0,1-2.9,1.44C242.86,192.82,241.35,192,241.35,190.45Zm5.83-.64V189a10.18,10.18,0,0,0-2.57-.34c-1.6,0-2.49.71-2.49,1.77v0c0,1.09,1,1.73,2.2,1.73A2.6,2.6,0,0,0,247.18,189.81Z" transform="translate(-25.28 -149.58)"/><path class="cls-7" d="M250.87,190.7v-4.95h-1.09v-.67h1.09v-2.42h.73v2.42h2.66v.67H251.6v4.88a1.33,1.33,0,0,0,1.52,1.47,2.57,2.57,0,0,0,1.11-.27v.68a2.77,2.77,0,0,1-1.23.27A1.94,1.94,0,0,1,250.87,190.7Z" transform="translate(-25.28 -149.58)"/><path class="cls-7" d="M256.48,182.11h.91v1h-.91Zm.09,3h.73v7.57h-.73Z" transform="translate(-25.28 -149.58)"/><path class="cls-7" d="M259.7,188.89v0a3.91,3.91,0,0,1,3.91-4,3.87,3.87,0,0,1,3.87,3.93v0a3.89,3.89,0,1,1-7.78,0Zm7,0v0a3.17,3.17,0,0,0-3.11-3.28,3.12,3.12,0,0,0-3.09,3.25v0a3.17,3.17,0,0,0,3.12,3.28A3.12,3.12,0,0,0,266.69,188.89Z" transform="translate(-25.28 -149.58)"/><path class="cls-7" d="M269.78,185.08h.73v1.41a3,3,0,0,1,2.73-1.59,2.88,2.88,0,0,1,3,3.12v4.63h-.72v-4.5a2.31,2.31,0,0,0-2.41-2.58,2.59,2.59,0,0,0-2.62,2.7v4.38h-.73Z" transform="translate(-25.28 -149.58)"/><path class="cls-8" d="M98.21,192.37c-.3-1.4-.52-2.61-.65-3.63a26.46,26.46,0,0,1-.19-3.1A18.31,18.31,0,0,1,91.26,191a17.28,17.28,0,0,1-8.6,2.14q-6.09,0-9.41-3.13a11.09,11.09,0,0,1-3.32-8.49,10.49,10.49,0,0,1,4.93-9.1q4.92-3.36,13.38-3.36h9.13v-5.47a8.8,8.8,0,0,0-2.85-7q-2.83-2.53-8-2.53a19.8,19.8,0,0,0-6.28.94,14.09,14.09,0,0,0-4.76,2.54l-.39,5.54H71.34l0-7.95a24,24,0,0,1,6.86-3.59,25.87,25.87,0,0,1,8.51-1.38q6.84,0,11,3.48t4.17,10V184c0,.84,0,1.65.06,2.42a18.71,18.71,0,0,0,.25,2.28l4.13.27v3.36Zm-15.06-3.25a16.59,16.59,0,0,0,8.76-2.29,13.56,13.56,0,0,0,5.46-5.93v-8.29H88.16q-6.22,0-10,2.58a7.69,7.69,0,0,0-3.73,6.51,6.86,6.86,0,0,0,2.32,5.38A9.27,9.27,0,0,0,83.15,189.12Z" transform="translate(-25.28 -149.58)"/><path class="cls-8" d="M108.38,172q0-9.9,4.23-15.84a13.58,13.58,0,0,1,11.71-5.95,14.69,14.69,0,0,1,7.63,1.93,15.48,15.48,0,0,1,5.33,5.45l.54-6.61h3.86v40.82q0,8-4.32,12.62t-12,4.62a30.71,30.71,0,0,1-6.37-.72,25.18,25.18,0,0,1-5.9-2l1.22-3.86a25.83,25.83,0,0,0,5.22,1.83,24.42,24.42,0,0,0,5.75.65q5.88,0,8.87-3.47t3-9.68V186.6a14.38,14.38,0,0,1-5.31,4.87,15.9,15.9,0,0,1-7.53,1.7,13.82,13.82,0,0,1-11.66-5.54q-4.22-5.55-4.21-14.79Zm4.59.81q0,7.44,3,11.9t9.08,4.46a12.86,12.86,0,0,0,7.43-2,13.09,13.09,0,0,0,4.57-5.58V162.4a14.6,14.6,0,0,0-4.4-5.91,11.79,11.79,0,0,0-7.53-2.27,10,10,0,0,0-9.11,5Q113,164.16,113,172Z" transform="translate(-25.28 -149.58)"/><path class="cls-8" d="M176,192.37c-.31-1.4-.53-2.61-.65-3.63a24.46,24.46,0,0,1-.19-3.1A18.25,18.25,0,0,1,169,191a17.28,17.28,0,0,1-8.6,2.14q-6.07,0-9.41-3.13a11.13,11.13,0,0,1-3.32-8.49,10.49,10.49,0,0,1,4.93-9.1q4.94-3.36,13.38-3.36h9.14v-5.47a8.8,8.8,0,0,0-2.85-7q-2.85-2.53-8-2.53a19.87,19.87,0,0,0-6.29.94,14.09,14.09,0,0,0-4.76,2.54l-.38,5.54h-3.79l0-7.95a24,24,0,0,1,6.86-3.59,25.91,25.91,0,0,1,8.51-1.38q6.84,0,11,3.48t4.16,10V184c0,.84,0,1.65.06,2.42a18.71,18.71,0,0,0,.25,2.28l4.13.27v3.36Zm-15.06-3.25a16.53,16.53,0,0,0,8.75-2.29,13.65,13.65,0,0,0,5.47-5.93v-8.29h-9.22q-6.22,0-9.95,2.58a7.67,7.67,0,0,0-3.73,6.51,6.85,6.85,0,0,0,2.31,5.38A9.28,9.28,0,0,0,160.91,189.12Z" transform="translate(-25.28 -149.58)"/></svg>